<svg width="151" height="35" viewBox="0 0 151 35" fill="none" xmlns="http://www.w3.org/2000/svg">
<g opacity="0.55">
<path opacity="0.55" d="M43.8511 10.334H47.6251V25.594H43.8511V10.334ZM49.1221 19.834C49.1221 16.06 51.4371 13.808 55.0101 13.808C58.5831 13.808 60.8981 16.06 60.8981 19.834C60.8981 23.608 58.6341 25.872 55.0101 25.872C51.3861 25.872 49.1221 23.67 49.1221 19.834ZM57.1101 19.834C57.1101 17.758 56.2921 16.534 55.0101 16.534C53.7281 16.534 52.9221 17.792 52.9221 19.834C52.9221 21.876 53.7151 23.105 55.0101 23.105C56.3051 23.105 57.1101 21.948 57.1101 19.847V19.834ZM62.3181 26.334H65.9411C66.1132 26.718 66.4048 27.036 66.7725 27.2405C67.1401 27.4451 67.5641 27.5253 67.9811 27.469C69.4151 27.469 70.1701 26.689 70.1701 25.557V23.443H70.0951C69.7944 24.0907 69.3065 24.6333 68.6944 25.0011C68.0823 25.3688 67.3741 25.5447 66.6611 25.506C63.9061 25.506 62.0821 23.406 62.0821 19.795C62.0821 16.184 63.8181 13.907 66.7121 13.907C67.447 13.8788 68.173 14.0756 68.7929 14.4713C69.4129 14.867 69.8972 15.4426 70.1811 16.121V14.021H73.9551V25.468C73.9551 28.223 71.5271 29.934 67.9421 29.934C64.6081 29.934 62.5331 28.434 62.3191 26.349L62.3181 26.334ZM70.1811 19.82C70.1811 17.983 69.3381 16.826 68.0051 16.826C66.6721 16.826 65.8541 17.971 65.8541 19.82C65.8541 21.669 66.6591 22.713 68.0051 22.713C69.3511 22.713 70.1811 21.694 70.1811 19.833V19.82ZM75.3811 19.82C75.3811 16.046 77.6961 13.794 81.2691 13.794C84.8421 13.794 87.1691 16.046 87.1691 19.82C87.1691 23.594 84.9051 25.858 81.2691 25.858C77.6331 25.858 75.3811 23.669 75.3811 19.833V19.82ZM83.3691 19.82C83.3691 17.744 82.5511 16.52 81.2691 16.52C79.9871 16.52 79.2441 17.791 79.2441 19.841C79.2441 21.891 80.0371 23.112 81.3201 23.112C82.6031 23.112 83.3711 21.942 83.3711 19.841L83.3691 19.82ZM88.6021 11.278C88.5922 10.8968 88.6959 10.5212 88.8998 10.199C89.1037 9.87669 89.3988 9.62227 89.7475 9.46796C90.0963 9.31365 90.483 9.26641 90.8587 9.33224C91.2343 9.39806 91.582 9.57398 91.8575 9.83768C92.133 10.1014 92.324 10.441 92.4062 10.8134C92.4884 11.1858 92.4581 11.5742 92.3192 11.9294C92.1804 12.2846 91.9391 12.5905 91.6261 12.8083C91.3131 13.0262 90.9424 13.1462 90.5611 13.153C90.3084 13.1704 90.0549 13.1354 89.8165 13.0501C89.578 12.9648 89.3598 12.8312 89.1755 12.6576C88.9911 12.4839 88.8447 12.2741 88.7453 12.0411C88.646 11.8082 88.5958 11.5573 88.5981 11.304L88.6021 11.278ZM88.6021 14.046H92.3761V25.594H88.5991L88.6021 14.046ZM106.076 19.82C106.076 23.594 104.403 25.745 101.535 25.745C100.8 25.7918 100.068 25.6118 99.4378 25.2293C98.8079 24.8468 98.3106 24.2802 98.0131 23.606H97.9381V29.293H94.1591V14.02H97.9331V16.083H98.0081C98.2917 15.397 98.7799 14.8151 99.4062 14.4166C100.033 14.0181 100.766 13.8223 101.508 13.856C104.401 13.906 106.125 16.07 106.125 19.844L106.076 19.82ZM102.302 19.82C102.302 17.983 101.459 16.813 100.138 16.813C98.8171 16.813 97.9741 17.996 97.9621 19.82C97.9501 21.644 98.8171 22.814 100.138 22.814C101.459 22.814 102.302 21.669 102.302 19.845V19.82ZM112.555 13.782C115.687 13.782 117.587 15.266 117.675 17.644H114.241C114.241 16.826 113.562 16.311 112.518 16.311C111.474 16.311 111.008 16.711 111.008 17.305C111.008 17.899 111.423 18.085 112.266 18.261L114.681 18.752C116.981 19.243 117.964 20.174 117.964 21.922C117.964 24.312 115.788 25.847 112.58 25.847C109.372 25.847 107.271 24.312 107.108 21.96H110.744C110.857 22.815 111.537 23.319 112.644 23.319C113.751 23.319 114.254 22.954 114.254 22.35C114.254 21.746 113.902 21.62 112.996 21.432L110.82 20.967C108.568 20.502 107.386 19.306 107.386 17.545C107.411 15.281 109.437 13.809 112.556 13.809L112.555 13.782ZM130.555 25.57H126.919V23.418H126.843C126.643 24.1397 126.202 24.7713 125.593 25.2078C124.985 25.6444 124.245 25.8597 123.497 25.818C122.924 25.8506 122.35 25.7598 121.815 25.5517C121.279 25.3435 120.795 25.0229 120.394 24.6115C119.994 24.2 119.686 23.7074 119.492 23.1668C119.298 22.6263 119.222 22.0504 119.27 21.478V14.018H123.044V20.61C123.044 21.981 123.744 22.71 124.918 22.71C125.192 22.7105 125.464 22.6524 125.714 22.5395C125.964 22.4267 126.187 22.2617 126.368 22.0557C126.549 21.8496 126.684 21.6073 126.763 21.3448C126.843 21.0824 126.866 20.806 126.83 20.534V14.02H130.604L130.555 25.57ZM132.381 14.02H136.029V16.247H136.104C136.304 15.5343 136.735 14.9081 137.329 14.4663C137.923 14.0246 138.647 13.7924 139.387 13.806C140.14 13.7456 140.888 13.9709 141.483 14.4371C142.077 14.9033 142.474 15.5763 142.595 16.322H142.67C142.899 15.5685 143.371 14.9123 144.013 14.4568C144.656 14.0013 145.431 13.7724 146.218 13.806C146.731 13.7887 147.243 13.8795 147.718 14.0727C148.194 14.2658 148.624 14.557 148.98 14.9272C149.336 15.2974 149.61 15.7383 149.784 16.2214C149.959 16.7045 150.03 17.2188 149.992 17.731V25.594H146.218V18.738C146.218 17.48 145.652 16.901 144.595 16.901C144.359 16.8989 144.126 16.9473 143.911 17.0431C143.695 17.139 143.503 17.2799 143.347 17.4564C143.19 17.6329 143.074 17.8409 143.005 18.0663C142.936 18.2917 142.916 18.5293 142.947 18.763V25.594H139.362V18.688C139.362 17.531 138.796 16.902 137.762 16.902C137.524 16.902 137.288 16.9526 137.071 17.0503C136.853 17.1481 136.659 17.2909 136.501 17.4692C136.343 17.6475 136.225 17.8574 136.153 18.0849C136.082 18.3124 136.061 18.5524 136.089 18.789V25.595H132.315L132.381 14.02Z" fill="#394149"/>
<path opacity="0.55" d="M33.297 11.026C32.6569 9.56206 31.8096 8.19776 30.781 6.97502C29.2617 5.11117 27.3647 3.59041 25.2149 2.51293C23.0652 1.43544 20.7115 0.825687 18.309 0.723834C15.9065 0.62198 13.5097 1.03034 11.2765 1.92201C9.04329 2.81368 7.02435 4.16842 5.35269 5.89698C3.68104 7.62555 2.39462 9.68869 1.57818 11.9505C0.761739 14.2123 0.433813 16.6214 0.616005 19.0192C0.798197 21.4169 1.48637 23.7488 2.63519 25.8613C3.78401 27.9738 5.3674 29.8189 7.28104 31.275C8.50785 32.2277 9.86328 33.0021 11.307 33.575C13.3312 34.4045 15.4975 34.8318 17.685 34.833C22.1995 34.823 26.5259 33.0238 29.7163 29.8299C32.9067 26.6359 34.701 22.3075 34.706 17.793C34.7093 15.4639 34.2296 13.1593 33.297 11.025V11.026ZM17.672 4.19302C19.6366 4.19345 21.5772 4.62349 23.358 5.45302C22.9236 5.64071 22.4669 5.77179 21.999 5.84302C20.4605 6.06609 19.0352 6.78057 17.9359 7.87988C16.8366 8.9792 16.1221 10.4044 15.899 11.943C15.8013 12.8062 15.4088 13.6092 14.7878 14.2166C14.1667 14.824 13.3552 15.1985 12.49 15.277C10.9515 15.5001 9.52623 16.2146 8.42691 17.3139C7.3276 18.4132 6.61312 19.8384 6.39004 21.377C6.31457 22.1978 5.96434 22.969 5.39604 23.566C4.41541 21.4943 3.97482 19.2082 4.11527 16.9204C4.25573 14.6327 4.97266 12.4176 6.19934 10.4814C7.42603 8.54524 9.1226 6.95084 11.1312 5.84663C13.1397 4.74242 15.395 4.16428 17.687 4.16602L17.672 4.19302ZM7.26804 26.601C7.41904 26.463 7.56804 26.337 7.72104 26.186C8.84016 25.101 9.55856 23.6688 9.75904 22.123C9.84003 21.2539 10.2279 20.4421 10.853 19.833C11.4547 19.2068 12.2645 18.822 13.13 18.751C14.6686 18.5279 16.0939 17.8135 17.1932 16.7141C18.2925 15.6148 19.007 14.1896 19.23 12.651C19.285 11.7432 19.6748 10.888 20.324 10.251C20.94 9.63748 21.7567 9.26679 22.624 9.20702C24.0413 9.01265 25.3631 8.38218 26.406 7.40302C27.5922 8.38766 28.597 9.57218 29.375 10.903C29.3271 10.9676 29.2721 11.0266 29.211 11.079C28.6106 11.7108 27.8018 12.104 26.934 12.186C25.3938 12.4051 23.9664 13.1182 22.8663 14.2183C21.7663 15.3184 21.0531 16.7458 20.834 18.286C20.7453 19.152 20.3599 19.9606 19.7432 20.575C19.1265 21.1893 18.3163 21.5716 17.45 21.657C15.9067 21.878 14.4758 22.5909 13.3698 23.6898C12.2639 24.7888 11.5419 26.2151 11.311 27.757C11.2434 28.3716 11.0324 28.9618 10.695 29.48C9.40424 28.7136 8.24816 27.7403 7.27304 26.599L7.26804 26.601ZM17.668 31.457C16.3915 31.4585 15.1211 31.2808 13.894 30.929C14.3138 30.1465 14.5866 29.2938 14.699 28.413C14.7873 27.5491 15.1708 26.742 15.7849 26.1279C16.399 25.5138 17.2061 25.1303 18.07 25.042C19.6112 24.8219 21.0397 24.1087 22.1418 23.0091C23.2439 21.9095 23.9604 20.4827 24.184 18.942C24.2723 18.0781 24.6558 17.271 25.2699 16.6569C25.884 16.0428 26.6911 15.6593 27.555 15.571C28.7151 15.4202 29.8208 14.9884 30.776 14.313C31.3055 16.3226 31.3678 18.4267 30.9582 20.4641C30.5486 22.5015 29.678 24.418 28.413 26.0668C27.148 27.7156 25.5223 29.0529 23.6605 29.9761C21.7987 30.8994 19.7502 31.384 17.672 31.393L17.668 31.457Z" fill="#394149"/>
</g>
</svg>
